<?xml version="1.0" encoding="utf-8"?>
<!-- Generator: Adobe Illustrator 27.1.1, SVG Export Plug-In . SVG Version: 6.00 Build 0)  -->
<svg version="1.1" xmlns="http://www.w3.org/2000/svg" xmlns:xlink="http://www.w3.org/1999/xlink" x="0px" y="0px"
	 viewBox="0 0 728.9 166.8" style="enable-background:new 0 0 728.9 166.8;" xml:space="preserve">
<style type="text/css">
	.st0{fill:none;}
	.st1{fill:#FFFFFF;}
	.st2{fill:#6699B2;}
	.st3{fill:#B29E84;}
</style>
<g id="Layer_3">
</g>
<g id="Laag_2">
	<g>
		<path class="st0" d="M127.6,72.3c0.9-0.3,1.9-0.6,2.9-0.8C129.5,71.6,128.6,71.9,127.6,72.3z"/>
		<path class="st0" d="M126.3,72.8c0.4-0.2,0.9-0.4,1.3-0.5C127.2,72.4,126.7,72.6,126.3,72.8z"/>
		<path class="st0" d="M123.6,74.1c0.8-0.5,1.7-0.9,2.5-1.3C125.3,73.2,124.5,73.7,123.6,74.1z"/>
		<path class="st0" d="M139.5,71.2c0.4,0.1,0.8,0.2,1.3,0.3C140.4,71.4,139.9,71.3,139.5,71.2z"/>
		<path class="st0" d="M135,70.9c1.5,0,2.9,0.1,4.4,0.3C137.9,70.9,136.5,70.8,135,70.9z"/>
		<path class="st0" d="M117.9,79.1c0.3-0.4,0.6-0.7,0.9-1C118.5,78.4,118.2,78.7,117.9,79.1z"/>
		<path class="st0" d="M119.1,77.8c0.2-0.3,0.5-0.5,0.8-0.8C119.6,77.3,119.3,77.5,119.1,77.8z"/>
		<path class="st0" d="M141,71.5c0.9,0.2,1.8,0.5,2.7,0.8C142.7,72,141.9,71.7,141,71.5z"/>
		<path class="st0" d="M120.1,76.8c0.7-0.6,1.4-1.2,2.2-1.7C121.5,75.6,120.8,76.2,120.1,76.8z"/>
		<path class="st0" d="M122.5,74.9c0.3-0.2,0.7-0.4,1-0.7C123.1,74.5,122.8,74.7,122.5,74.9z"/>
		<path class="st0" d="M116.4,81.4c0.2-0.3,0.4-0.6,0.5-0.9C116.7,80.8,116.5,81.1,116.4,81.4z"/>
		<path class="st0" d="M115.5,83c0.2-0.4,0.4-0.8,0.6-1.2C115.9,82.1,115.7,82.6,115.5,83z"/>
		<path class="st0" d="M145.2,73.1c0.4,0.2,0.8,0.4,1.2,0.6C146.1,73.5,145.7,73.3,145.2,73.1z"/>
		<path class="st0" d="M0.5,74.4c0.4-3.2,0.9-6.4,1.7-9.5c0,0,0-0.1,0-0.1C9.9,32.3,35.3,8.8,65.8,2c2.8-0.6,5.7-1.1,8.6-1.5
			C40.2,4.2,10.5,29,2.2,64.2C0.8,70,0.1,75.8,0,81.6c0-0.3,0-0.6,0-0.8C0.1,78.6,0.3,76.5,0.5,74.4z"/>
		<path class="st0" d="M117.1,80.2c0.3-0.4,0.5-0.8,0.8-1.1C117.7,79.4,117.4,79.8,117.1,80.2z"/>
		<path class="st0" d="M75.7,0.4C75.7,0.4,75.7,0.4,75.7,0.4C75.7,0.4,75.7,0.4,75.7,0.4z"/>
		<path class="st0" d="M135,70.9c-1.5,0-3,0.2-4.5,0.5C132,71.1,133.5,70.9,135,70.9C135,70.9,135,70.9,135,70.9z"/>
		<path class="st0" d="M143.9,72.5c0.3,0.1,0.6,0.3,0.9,0.4C144.6,72.7,144.3,72.6,143.9,72.5z"/>
		<path class="st1" d="M74.5,0.5c0.4,0,0.8-0.1,1.2-0.1C75.3,0.4,74.9,0.5,74.5,0.5z"/>
		<path class="st1" d="M90.9,0.3c-5.1-0.5-10.2-0.4-15.2,0c0,0,0,0,0,0c-0.4,0-0.8,0.1-1.2,0.1c-2.9,0.3-5.8,0.8-8.6,1.5
			C73.9,0.2,82.4-0.4,90.9,0.3z"/>
		<path class="st1" d="M104.7,2.7c0.2,0.1,0.5,0.1,0.7,0.2C105.2,2.8,104.9,2.8,104.7,2.7z"/>
		<path class="st1" d="M102.9,2.2C102.9,2.2,102.9,2.2,102.9,2.2C102.9,2.2,102.9,2.3,102.9,2.2C102.9,2.3,102.9,2.2,102.9,2.2z"/>
		<path class="st1" d="M100.6,1.8c0.7,0.1,1.4,0.3,2,0.4C102,2,101.3,1.9,100.6,1.8z"/>
		<path class="st1" d="M96.1,0.9C96.6,1,97,1.1,97.5,1.2C97,1.1,96.6,1,96.1,0.9z"/>
		<path class="st1" d="M108.2,3.7c0.7,0.2,1.4,0.4,2,0.6C109.6,4.1,108.9,3.9,108.2,3.7z"/>
		<path class="st1" d="M91.3,0.4c0.6,0.1,1.2,0.1,1.8,0.2C92.5,0.5,91.9,0.4,91.3,0.4z"/>
		<path class="st1" d="M106.5,3.2c0.3,0.1,0.5,0.2,0.8,0.2C107.1,3.3,106.8,3.3,106.5,3.2z"/>
		<path class="st1" d="M93.7,0.6c0.5,0.1,1,0.1,1.5,0.2C94.8,0.8,94.3,0.7,93.7,0.6z"/>
		<path class="st1" d="M98.4,1.3c0.5,0.1,0.9,0.2,1.4,0.3C99.3,1.5,98.9,1.4,98.4,1.3z"/>
		<path class="st1" d="M153.4,130.2c0.1-0.1,0.2-0.3,0.3-0.4c0,0,0,0,0,0C153.6,129.9,153.5,130.1,153.4,130.2z"/>
		<path class="st2" d="M122.5,128.4c-11.3-1.3-22.3-3.4-33.2-9.1c-12.2-6.3-22.3-15.8-34.5-22c-16.7-8.6-36.1-11.7-54.5-8
			c0,0.7,0.1,1.4,0.2,2.1c0.1,1.2,0.3,2.3,0.4,3.5c17.2-2.5,35,0.7,50.5,8.7c12.2,6.3,19,13.3,34.5,22.6c9.8,5.9,18.3,6.1,29.7,7.2
			c24.6,2.3,29.5-2.9,34.2-3.3c-3.4,1.9-15.6,8.9-37.1,7.7c-11.4-0.6-19.3-1.3-30.9-7.4c-12.2-6.4-24.4-19.4-36.6-25.7
			c-13.7-7-29.1-10.4-44.3-9.4c4.8,33,29.4,61.3,64,69.5c34.9,8.2,69.7-6.5,88.6-34.3c0.1-0.1,0.2-0.3,0.3-0.4c0,0,0,0,0,0
			c2.9-4.4,5.5-9.1,7.6-14.1c-2.4,2.1-8.8,7.3-11.7,8.7C140.6,128.6,132.1,129.5,122.5,128.4z"/>
		<path class="st1" d="M2.2,64.7c0,0,0,0.1,0,0.1c-0.7,3.2-1.3,6.4-1.7,9.5c0,0,0,0,0,0C0.9,71.2,1.5,68,2.2,64.7z"/>
		<path class="st1" d="M107.3,3.4c0.3,0.1,0.6,0.2,0.9,0.3C107.9,3.6,107.6,3.5,107.3,3.4z"/>
		<path class="st1" d="M99.8,1.6c0.3,0.1,0.6,0.1,0.8,0.2C100.4,1.7,100.1,1.6,99.8,1.6z"/>
		<path class="st1" d="M93.1,0.5c0.2,0,0.4,0,0.6,0.1C93.5,0.6,93.3,0.6,93.1,0.5z"/>
		<path class="st1" d="M97.5,1.2c0.3,0,0.6,0.1,0.9,0.1C98.1,1.3,97.8,1.2,97.5,1.2z"/>
		<path class="st1" d="M90.9,0.3c0.1,0,0.2,0,0.3,0C91.2,0.4,91.1,0.3,90.9,0.3z"/>
		<path class="st1" d="M102.9,2.2c-0.1,0-0.1,0-0.2,0C102.7,2.2,102.8,2.2,102.9,2.2C102.9,2.2,102.9,2.2,102.9,2.2z"/>
		<path class="st1" d="M102.9,2.3c0.6,0.1,1.2,0.3,1.8,0.4C104.1,2.5,103.5,2.4,102.9,2.3z"/>
		<path class="st1" d="M105.4,2.9c0.4,0.1,0.7,0.2,1.1,0.3C106.1,3.1,105.8,3,105.4,2.9z"/>
		<path class="st1" d="M95.3,0.8c0.3,0,0.5,0.1,0.8,0.1C95.8,0.9,95.6,0.9,95.3,0.8z"/>
		<path class="st1" d="M110.2,4.3c0.1,0,0.2,0.1,0.3,0.1C110.4,4.4,110.3,4.4,110.2,4.3z"/>
		<path class="st3" d="M65.8,2C35.3,8.8,9.9,32.3,2.2,64.7c-0.7,3.2-1.3,6.4-1.7,9.6c0,0,0,0,0,0c-0.2,2.1-0.4,4.2-0.5,6.3
			c8.9-6.2,20.3-8.8,31-8.7c11,0.1,22,3.4,31.3,9.3c9.9,6.2,17.8,15.2,27.4,21.8c9.3,6.3,19.5,11.4,30.3,14.3
			c5.1,1.4,10.4,2.2,15.6,1.6c10.8-1.4,20.3-10.1,22.2-20.8c1.6-9.4-3.1-19.8-11.3-24.6c-0.4-0.2-0.8-0.4-1.2-0.6
			c-0.1-0.1-0.2-0.1-0.4-0.2c-0.3-0.1-0.6-0.3-0.9-0.4c-0.1,0-0.2-0.1-0.3-0.1c-0.9-0.3-1.8-0.6-2.7-0.8c-0.1,0-0.1,0-0.2,0
			c-0.4-0.1-0.8-0.2-1.3-0.3c0,0-0.1,0-0.1,0c-1.4-0.2-2.9-0.3-4.4-0.3c0,0,0,0,0,0c0,0,0,0,0,0c-1.5,0-3,0.2-4.5,0.5c0,0,0,0,0,0
			c-1,0.2-1.9,0.5-2.9,0.8c0,0,0,0,0,0c-0.4,0.2-0.9,0.3-1.3,0.5c0,0-0.1,0-0.1,0.1c-0.9,0.4-1.7,0.8-2.5,1.3
			c-0.1,0-0.1,0.1-0.2,0.1c-0.3,0.2-0.7,0.4-1,0.7c-0.1,0.1-0.1,0.1-0.2,0.2c-0.8,0.5-1.5,1.1-2.2,1.7c-0.1,0.1-0.2,0.1-0.2,0.2
			c-0.3,0.2-0.5,0.5-0.8,0.8c-0.1,0.1-0.2,0.2-0.2,0.3c-0.3,0.3-0.6,0.7-0.9,1c0,0,0,0,0,0c-0.3,0.4-0.6,0.7-0.8,1.1
			c-0.1,0.1-0.1,0.2-0.2,0.3c-0.2,0.3-0.4,0.6-0.5,0.9c-0.1,0.1-0.1,0.2-0.2,0.4c-0.2,0.4-0.4,0.8-0.6,1.2c0.7-1.5,0.2-4.7,0.6-6.5
			c4.4-22.1,34.4-22,48.7-9.8c0.4,0.3,0.7,0.6,1,0.9c-5.7-28.8-26.4-53.4-55.4-63.2c-0.1,0-0.2-0.1-0.3-0.1c-0.7-0.2-1.3-0.4-2-0.6
			c-0.3-0.1-0.6-0.2-0.9-0.3c-0.3-0.1-0.5-0.2-0.8-0.2c-0.4-0.1-0.7-0.2-1.1-0.3c-0.2-0.1-0.5-0.1-0.7-0.2c-0.6-0.2-1.2-0.3-1.8-0.4
			c0,0,0,0-0.1,0c-0.1,0-0.1,0-0.2,0c-0.7-0.2-1.4-0.3-2-0.4c-0.3-0.1-0.6-0.1-0.8-0.2c-0.5-0.1-0.9-0.2-1.4-0.3
			c-0.3-0.1-0.6-0.1-0.9-0.1C97,1.1,96.6,1,96.1,0.9c-0.3,0-0.5-0.1-0.8-0.1c-0.5-0.1-1-0.1-1.5-0.2c-0.2,0-0.4-0.1-0.6-0.1
			c-0.6-0.1-1.2-0.1-1.8-0.2c-0.1,0-0.2,0-0.3,0C82.4-0.4,73.9,0.2,65.8,2z M48.1,50.1c-6.5-7.6-25.4-7.4-25.4-7.4
			c9-3.6,24-0.1,24-0.1c7.9-5.8,23.7-5,23.7-5C57,38.3,48.1,50.1,48.1,50.1z M100.6,18.9c-15.2-0.2-26.3,12.5-26.3,12.5
			c-6.8-9.2-28.4-10.4-28.4-10.4c10.5-3.4,27.3,1.7,27.3,1.7C82.7,16.7,100.6,18.9,100.6,18.9z"/>
		<path class="st1" d="M135,70.9L135,70.9C135,70.9,135,70.9,135,70.9C135,70.9,135,70.9,135,70.9C135,70.9,135,70.9,135,70.9z"/>
		<path class="st1" d="M139.4,71.2c0,0,0.1,0,0.1,0C139.5,71.2,139.4,71.2,139.4,71.2z"/>
		<path class="st1" d="M130.5,71.4C130.5,71.4,130.5,71.4,130.5,71.4C130.5,71.4,130.5,71.4,130.5,71.4z"/>
		<path class="st1" d="M127.6,72.3C127.6,72.3,127.6,72.3,127.6,72.3C127.6,72.3,127.6,72.3,127.6,72.3z"/>
		<path class="st1" d="M144.9,72.9c0.1,0.1,0.2,0.1,0.4,0.2C145.1,73,145,72.9,144.9,72.9z"/>
		<path class="st1" d="M140.8,71.5c0.1,0,0.1,0,0.2,0C140.9,71.5,140.8,71.5,140.8,71.5z"/>
		<path class="st1" d="M143.6,72.3c0.1,0,0.2,0.1,0.3,0.1C143.8,72.4,143.7,72.4,143.6,72.3z"/>
		<path class="st1" d="M126.2,72.8c0,0,0.1,0,0.1-0.1C126.3,72.8,126.2,72.8,126.2,72.8z"/>
		<path class="st1" d="M117.9,79.1C117.9,79.1,117.9,79.1,117.9,79.1C117.9,79.1,117.9,79.1,117.9,79.1z"/>
		<path class="st1" d="M116.9,80.5c0.1-0.1,0.1-0.2,0.2-0.3C117.1,80.3,117,80.4,116.9,80.5z"/>
		<path class="st1" d="M116.2,81.7c0.1-0.1,0.1-0.2,0.2-0.4C116.3,81.5,116.2,81.6,116.2,81.7z"/>
		<path class="st1" d="M118.8,78c0.1-0.1,0.2-0.2,0.2-0.3C119,77.9,118.9,78,118.8,78z"/>
		<path class="st1" d="M119.8,77c0.1-0.1,0.2-0.1,0.2-0.2C120,76.9,119.9,76.9,119.8,77z"/>
		<path class="st1" d="M123.5,74.2c0.1,0,0.1-0.1,0.2-0.1C123.6,74.2,123.5,74.2,123.5,74.2z"/>
		<path class="st1" d="M122.2,75.1c0.1-0.1,0.1-0.1,0.2-0.2C122.4,75,122.3,75,122.2,75.1z"/>
	</g>
	<g>
		<path class="st3" d="M227.5,52.6c0,2-0.5,3.8-1.6,5.2c-1.1,1.5-2.5,2.7-4.3,3.6c-1.6,0.8-3.6,1.5-5.9,1.9s-4.7,0.6-7.1,0.6
			c-1.7,0-3.3,0-4.7-0.1c-1.4-0.1-2.3-0.1-2.7-0.2l-0.8-7.4c0.2,0,1.1,0.1,2.5,0.2s2.8,0.1,3.9,0.1c0.9,0,1.9-0.1,3.2-0.2
			c1.3-0.1,2.4-0.4,3.2-0.6c1.2-0.4,2-0.8,2.4-1.3c0.5-0.5,0.7-1.2,0.7-2c0-0.9-0.3-1.6-0.8-2.2c-0.5-0.6-1.4-1.2-2.7-1.9
			c-0.8-0.4-1.8-0.9-3.1-1.5c-1.3-0.6-2.4-1.2-3.4-1.8c-1.8-1.1-3.1-2.3-3.9-3.7c-0.8-1.4-1.2-2.9-1.2-4.5c0-1.4,0.3-2.7,0.9-3.8
			c0.6-1.1,1.4-2.1,2.3-2.9c1.5-1.3,3.4-2.4,6-3.1s5.5-1.1,8.9-1.1c1.6,0,3,0,4.2,0.1c1.2,0,1.9,0.1,2.2,0.1l0.9,7.4
			c-0.5,0-1.2-0.1-2.2-0.2s-2.2-0.1-3.7-0.1c-1,0-2,0.1-3,0.2c-1,0.1-1.9,0.4-2.7,0.7c-0.8,0.3-1.5,0.6-1.9,1.2
			c-0.5,0.5-0.7,1.1-0.7,1.9c0,0.7,0.3,1.3,0.8,1.9c0.5,0.6,1.4,1.2,2.7,1.9c0.8,0.4,1.8,0.9,3,1.4c1.1,0.5,2.2,1.1,3.3,1.7
			c1.8,1,3.1,2.2,3.9,3.6C227,49.2,227.5,50.8,227.5,52.6z"/>
		<path class="st3" d="M253.2,57.5l-0.8,6.1c-0.3,0-0.7,0-1.3,0.1c-0.6,0-1.4,0-2.4,0c-4.5,0-7.9-0.9-10.1-2.6s-3.4-4.2-3.4-7.6
			c0-2.2,0-4.2,0-6c0-1.8,0-3.9,0-6.3h-4.6v-6h4.8v-7.4h8.2v7.4h9.5v6h-9.5c0,0.4,0,1.2,0,2.4c0,1.2,0,2.2,0,3c0,0.6,0,1.4,0,2.2
			c0,0.9,0,1.8,0,2.8c0,2,0.6,3.5,1.7,4.5c1.1,1,3.2,1.5,6.2,1.5c0.4,0,0.7,0,1,0S253.1,57.5,253.2,57.5z"/>
		<path class="st3" d="M279.1,41.4c-1.5,0.5-3.2,1-5.1,1.7c-1.9,0.7-4.3,1.7-7.3,3.1c0,0.5,0,1.3,0,2.5c0,1.2,0,2.5,0,3.7
			c0,2,0,4.1,0.1,6.6c0,2.4,0.1,3.9,0.1,4.3h-8.5c0-0.6,0-1.9,0-4.2c0-2.2,0-5.2,0-8.9c0-1.8,0-4,0-6.7c0-2.7,0-5.5-0.1-8.5h8.3
			l0,4.1l0.1,0c1.8-1.1,3.6-2.1,5.6-3.1c2-1,3.6-1.6,4.7-1.9L279.1,41.4z"/>
		<path class="st3" d="M305.9,48.7c0,4.5,0,8,0,10.5c0,2.5,0,3.9,0,4.3c-0.3,0-1.5,0.1-3.6,0.3c-2.1,0.1-4.3,0.2-6.7,0.2
			c-1.6,0-3.3-0.1-5.3-0.4c-2-0.3-3.6-0.7-5-1.2c-1.7-0.7-3-1.7-4-2.9c-1-1.2-1.4-2.6-1.4-4.2c0-1.8,0.5-3.3,1.5-4.5
			c1-1.3,2.6-2.3,4.8-3.1c1.5-0.6,3.3-1,5.4-1.3c2.1-0.3,4.1-0.5,5.8-0.7c-0.1-1-0.3-1.8-0.8-2.4c-0.5-0.6-1.3-1.1-2.4-1.5
			c-0.7-0.2-1.6-0.4-2.5-0.5s-2-0.2-3.2-0.2c-1.1,0-2.1,0-2.9,0.1c-0.8,0-1.7,0.1-2.6,0.1l0.7-6.2c0.4,0,1,0,1.8-0.1
			c0.8,0,2,0,3.4,0c3.1,0,5.7,0.3,7.8,0.8s3.8,1.4,5.2,2.7c1.3,1.1,2.3,2.5,2.9,4.1C305.6,43.9,305.9,46,305.9,48.7z M297.8,53.8
			c0-0.6,0-1.3,0-2.1c0-0.8,0-1.6,0-2.5c-0.5,0-1.5,0.1-2.9,0.3s-2.6,0.5-3.7,1c-0.7,0.3-1.4,0.8-2,1.4c-0.6,0.6-0.9,1.4-0.9,2.3
			c0,1,0.3,1.9,0.8,2.5c0.5,0.6,1.2,1.1,2.1,1.4c0.6,0.2,1.3,0.4,2.1,0.5s1.7,0.2,2.6,0.2c0.2,0,0.5,0,0.8,0c0.3,0,0.6,0,1,0
			c0-0.2,0-0.8,0-1.7C297.8,56.2,297.8,55.1,297.8,53.8z"/>
		<path class="st3" d="M340.9,63.4h-8.5c0-0.6,0-2,0-4.2c0-2.2,0-4,0-5.3c0-0.9,0-2.2,0-3.9s0-3,0-3.8c0-1.7-0.3-2.9-0.9-3.7
			c-0.5-0.8-1.5-1.1-2.9-1.1c-0.9,0-2,0.2-3.3,0.7c-1.2,0.5-2.4,1-3.5,1.7c0,0.1,0,1.1,0,3.1c0,2,0,3.6,0,4.9c0,2,0,4.4,0.1,7.2
			c0,2.8,0.1,4.3,0.1,4.6h-8.5c0-0.4,0-1.7,0-3.9c0-2.2,0-5.3,0-9.4c0-2.4,0-4.8,0-7.3c0-2.5,0-5-0.1-7.7h8.3l0,2.6l0,0.1
			c1.8-1,3.6-1.8,5.6-2.4s3.7-1,5.2-1c2.5,0,4.6,0.8,6.1,2.4c1.5,1.6,2.3,3.7,2.3,6.4c0,2.2,0,4.1,0,5.6c0,1.5,0,2.7,0,3.8
			c0,1.7,0,3.8,0.1,6.3C340.9,61.3,340.9,62.8,340.9,63.4z"/>
		<path class="st3" d="M374.1,63.6c-0.4,0-1.1,0-1.9,0c-0.8,0-1.6,0-2.2,0c-3.9,0-7.1-0.2-9.5-0.5c-2.4-0.4-4.5-1-6.3-1.9
			c-2.6-1.2-4.5-2.9-5.8-4.9c-1.3-2-2-4.3-2-6.9c0-2.7,0.7-5.1,2.2-7.2c1.4-2.1,3.6-3.8,6.5-5c1.5-0.7,3.2-1.2,5.1-1.5
			c1.9-0.3,3.7-0.5,5.5-0.6l-0.1-12.4h8.5c0,0.5,0,2.9,0,7.1c0,4.2,0,8.9,0,14.2c0,4.6,0,8.4,0,11.6
			C374.1,58.9,374.1,61.5,374.1,63.6z M366,46.2c0-0.7,0-1.4,0-2.2s0-1.6,0-2.4c-1.3,0-2.5,0.1-3.7,0.3c-1.2,0.2-2.2,0.5-3.2,1
			c-1.3,0.6-2.4,1.5-3.1,2.8c-0.7,1.2-1.1,2.6-1.1,4.2c0,1.4,0.3,2.7,1,3.8s1.6,2,2.7,2.6c1,0.5,2,0.9,3.2,1.2
			c1.2,0.3,2.4,0.4,3.6,0.4c0.1,0,0.2,0,0.3,0s0.2,0,0.3,0c0-0.2,0-1.3,0-3.3C366,52.6,366,49.8,366,46.2z"/>
		<path class="st3" d="M405.8,48.7c0,4.5,0,8,0,10.5c0,2.5,0,3.9,0,4.3c-0.3,0-1.5,0.1-3.6,0.3c-2.1,0.1-4.3,0.2-6.7,0.2
			c-1.6,0-3.3-0.1-5.3-0.4c-2-0.3-3.6-0.7-5-1.2c-1.7-0.7-3-1.7-4-2.9c-1-1.2-1.4-2.6-1.4-4.2c0-1.8,0.5-3.3,1.5-4.5
			c1-1.3,2.6-2.3,4.8-3.1c1.5-0.6,3.3-1,5.4-1.3s4.1-0.5,5.8-0.7c-0.1-1-0.3-1.8-0.8-2.4s-1.3-1.1-2.4-1.5c-0.7-0.2-1.6-0.4-2.4-0.5
			c-0.9-0.1-2-0.2-3.2-0.2c-1.1,0-2.1,0-2.9,0.1c-0.8,0-1.7,0.1-2.6,0.1l0.7-6.2c0.4,0,1,0,1.8-0.1c0.8,0,2,0,3.4,0
			c3.1,0,5.7,0.3,7.8,0.8s3.8,1.4,5.2,2.7c1.3,1.1,2.3,2.5,2.9,4.1S405.8,46,405.8,48.7z M397.7,53.8c0-0.6,0-1.3,0-2.1
			c0-0.8,0-1.6,0-2.5c-0.5,0-1.5,0.1-2.9,0.3c-1.4,0.2-2.6,0.5-3.7,1c-0.7,0.3-1.4,0.8-2,1.4c-0.6,0.6-0.9,1.4-0.9,2.3
			c0,1,0.3,1.9,0.8,2.5c0.5,0.6,1.2,1.1,2.1,1.4c0.6,0.2,1.3,0.4,2.1,0.5s1.7,0.2,2.6,0.2c0.2,0,0.5,0,0.8,0c0.3,0,0.6,0,1,0
			c0-0.2,0-0.8,0-1.7C397.7,56.2,397.7,55.1,397.7,53.8z"/>
		<path class="st3" d="M441.1,48.6c0,2.9-0.7,5.3-2,7.2c-1.3,2-3,3.5-5.2,4.7c-1.7,0.9-3.7,1.6-5.9,2.1c-2.2,0.4-4.3,0.7-6.2,0.7
			l0.1,12.7h-8.5c0-0.9,0-3.5,0-7.8c0-4.3,0-9.1,0-14.2c0-2.5,0-5.4,0-8.7c0-3.3,0-6.7-0.1-10.2c0.7,0,1.5,0,2.4,0s1.7,0,2.1,0
			c3.6,0,6.6,0.2,8.9,0.5c2.3,0.3,4.6,1,6.8,2c2.4,1.1,4.2,2.6,5.5,4.6C440.4,44,441.1,46.2,441.1,48.6z M432.5,49.1
			c0-1.4-0.3-2.6-0.9-3.7c-0.6-1.1-1.5-1.9-2.5-2.6c-1-0.6-2-0.9-3.1-1.2c-1.1-0.2-2.4-0.3-3.7-0.3c-0.1,0-0.3,0-0.4,0s-0.3,0-0.4,0
			c0,0.3,0,1.3,0,2.8c0,1.5,0,3.7,0,6.7c0,0.9,0,2.2,0,3.7c0,1.6,0,2.6,0,3.2c1.2,0,2.5-0.1,3.8-0.4c1.3-0.2,2.3-0.6,3.1-1
			c1.4-0.7,2.4-1.7,3.2-2.8S432.5,50.9,432.5,49.1z"/>
		<path class="st3" d="M474.5,48.6c0,2.9-0.7,5.3-2,7.2c-1.3,2-3,3.5-5.2,4.7c-1.7,0.9-3.7,1.6-5.9,2.1c-2.2,0.4-4.3,0.7-6.2,0.7
			l0.1,12.7h-8.5c0-0.9,0-3.5,0-7.8c0-4.3,0-9.1,0-14.2c0-2.5,0-5.4,0-8.7c0-3.3,0-6.7-0.1-10.2c0.7,0,1.5,0,2.4,0s1.7,0,2.1,0
			c3.6,0,6.6,0.2,8.9,0.5c2.3,0.3,4.6,1,6.8,2c2.4,1.1,4.2,2.6,5.5,4.6C473.9,44,474.5,46.2,474.5,48.6z M466,49.1
			c0-1.4-0.3-2.6-0.9-3.7c-0.6-1.1-1.5-1.9-2.5-2.6c-1-0.6-2-0.9-3.1-1.2c-1.1-0.2-2.4-0.3-3.7-0.3c-0.1,0-0.3,0-0.4,0s-0.3,0-0.4,0
			c0,0.3,0,1.3,0,2.8c0,1.5,0,3.7,0,6.7c0,0.9,0,2.2,0,3.7c0,1.6,0,2.6,0,3.2c1.2,0,2.5-0.1,3.8-0.4c1.3-0.2,2.3-0.6,3.1-1
			c1.4-0.7,2.4-1.7,3.2-2.8S466,50.9,466,49.1z"/>
		<path class="st3" d="M503.9,48.7c0,4.5,0,8,0,10.5c0,2.5,0,3.9,0,4.3c-0.3,0-1.5,0.1-3.6,0.3c-2.1,0.1-4.3,0.2-6.7,0.2
			c-1.6,0-3.3-0.1-5.3-0.4c-2-0.3-3.6-0.7-5-1.2c-1.7-0.7-3-1.7-4-2.9c-1-1.2-1.4-2.6-1.4-4.2c0-1.8,0.5-3.3,1.5-4.5
			c1-1.3,2.6-2.3,4.8-3.1c1.5-0.6,3.3-1,5.4-1.3s4.1-0.5,5.8-0.7c-0.1-1-0.3-1.8-0.8-2.4s-1.3-1.1-2.4-1.5c-0.7-0.2-1.6-0.4-2.4-0.5
			c-0.9-0.1-2-0.2-3.2-0.2c-1.1,0-2.1,0-2.9,0.1c-0.8,0-1.7,0.1-2.6,0.1l0.7-6.2c0.4,0,1,0,1.8-0.1c0.8,0,2,0,3.4,0
			c3.1,0,5.7,0.3,7.8,0.8s3.8,1.4,5.2,2.7c1.3,1.1,2.3,2.5,2.9,4.1S503.9,46,503.9,48.7z M495.9,53.8c0-0.6,0-1.3,0-2.1
			c0-0.8,0-1.6,0-2.5c-0.5,0-1.5,0.1-2.9,0.3c-1.4,0.2-2.6,0.5-3.7,1c-0.7,0.3-1.4,0.8-2,1.4c-0.6,0.6-0.9,1.4-0.9,2.3
			c0,1,0.3,1.9,0.8,2.5c0.5,0.6,1.2,1.1,2.1,1.4c0.6,0.2,1.3,0.4,2.1,0.5s1.7,0.2,2.6,0.2c0.2,0,0.5,0,0.8,0c0.3,0,0.6,0,1,0
			c0-0.2,0-0.8,0-1.7C495.9,56.2,495.9,55.1,495.9,53.8z"/>
		<path class="st3" d="M532.4,41.4c-1.5,0.5-3.2,1-5.1,1.7c-1.9,0.7-4.3,1.7-7.3,3.1c0,0.5,0,1.3,0,2.5c0,1.2,0,2.5,0,3.7
			c0,2,0,4.1,0.1,6.6c0,2.4,0.1,3.9,0.1,4.3h-8.5c0-0.6,0-1.9,0-4.2c0-2.2,0-5.2,0-8.9c0-1.8,0-4,0-6.7c0-2.7,0-5.5-0.1-8.5h8.3
			l0,4.1l0.1,0c1.8-1.1,3.6-2.1,5.6-3.1s3.6-1.6,4.7-1.9L532.4,41.4z"/>
		<path class="st3" d="M554.7,57.5l-0.8,6.1c-0.3,0-0.7,0-1.3,0.1c-0.6,0-1.4,0-2.4,0c-4.5,0-7.9-0.9-10.1-2.6
			c-2.3-1.7-3.4-4.2-3.4-7.6c0-2.2,0-4.2,0-6c0-1.8,0-3.9,0-6.3h-4.6v-6h4.8v-7.4h8.2v7.4h9.5v6h-9.5c0,0.4,0,1.2,0,2.4
			c0,1.2,0,2.2,0,3c0,0.6,0,1.4,0,2.2c0,0.9,0,1.8,0,2.8c0,2,0.6,3.5,1.7,4.5c1.1,1,3.2,1.5,6.2,1.5c0.4,0,0.7,0,1,0
			S554.6,57.5,554.7,57.5z"/>
		<path class="st3" d="M585.1,49.2h-19.2c0,1.4,0.4,2.7,1.2,3.9c0.8,1.2,2,2.2,3.6,2.9c1.1,0.5,2.3,0.9,3.6,1.1
			c1.2,0.2,2.6,0.3,4.1,0.3c1.2,0,2.2,0,3.1-0.1c0.9,0,1.5-0.1,1.9-0.1l-0.9,6.1c-0.4,0-1,0.1-2,0.1c-0.9,0-2,0.1-3.1,0.1
			c-3.2,0-6.1-0.4-8.6-1.1c-2.5-0.7-4.6-1.8-6.4-3.2c-1.5-1.2-2.7-2.7-3.6-4.5s-1.4-3.8-1.4-5.9c0-2.1,0.3-4.1,1-5.7
			c0.7-1.7,1.7-3.3,3.2-4.8c1.2-1.3,2.8-2.3,4.6-2.9c1.8-0.7,3.7-1,5.6-1c2,0,3.8,0.3,5.3,0.8s2.9,1.4,4,2.5
			c1.3,1.3,2.3,2.9,2.9,4.8C584.8,44.4,585.1,46.7,585.1,49.2z M577.1,45.5c-0.2-1.8-0.7-3.2-1.7-4.3s-2.3-1.6-3.9-1.6
			c-1.6,0-3,0.5-4,1.6s-1.7,2.5-2,4.3H577.1z"/>
		<path class="st3" d="M635.7,63.4h-8.5c0-0.8,0-2.1,0.1-3.8s0-3.7,0-5.8c0-0.8,0-2.1,0-3.8c0-1.7,0-3,0-3.9c0-1.8-0.3-3-0.9-3.7
			c-0.6-0.7-1.5-1.1-2.8-1.1c-0.8,0-1.8,0.2-2.8,0.5s-2.2,0.9-3.3,1.5c0,0.1,0,0.2,0,0.5c0,0.2,0,0.6,0,0.9c0,1.4,0,2.9,0,4.3
			s0,2.7,0,3.8c0,2.4,0,4.6,0.1,6.6c0,2,0.1,3.3,0.1,4H609c0-0.5,0-1.6,0-3.3c0-1.7,0-3.8,0-6.3c0-0.9,0-2.2,0-3.9c0-1.7,0-3,0-3.8
			c0-0.6-0.1-1.2-0.2-1.8c-0.1-0.6-0.2-1.1-0.5-1.5c-0.3-0.5-0.6-0.9-1.1-1.1s-1.1-0.4-2-0.4c-0.8,0-1.8,0.2-2.9,0.7s-2.2,1-3.3,1.7
			c0,0.2,0,1.3,0,3.4c0,2.1,0,3.7,0,4.9c0,2,0,4.2,0.1,6.7s0.1,4.1,0.1,4.8h-8.5c0-0.9,0-2.4,0-4.6c0-2.1,0-5.2,0-9.1
			c0-1.6,0-3.6,0-6.1c0-2.5,0-5.3-0.1-8.4h8.3l0,2.7l0.1,0c1.1-0.7,2.6-1.5,4.6-2.3c2-0.8,3.8-1.2,5.4-1.2c1.7,0,3.2,0.3,4.4,1
			c1.2,0.7,2.1,1.6,2.8,2.6h0.1c1.6-1,3.5-1.9,5.5-2.6c2-0.7,3.9-1.1,5.5-1.1c2.7,0,4.7,0.8,6.2,2.4c1.5,1.6,2.2,3.6,2.2,6.2
			c0,2.1,0,3.9,0,5.2c0,1.4,0,2.7,0,4c0,2.5,0,4.8,0.1,6.8C635.7,61.1,635.7,62.5,635.7,63.4z"/>
		<path class="st3" d="M668.9,49.2h-19.2c0,1.4,0.4,2.7,1.2,3.9c0.8,1.2,2,2.2,3.6,2.9c1.1,0.5,2.3,0.9,3.6,1.1
			c1.2,0.2,2.6,0.3,4.1,0.3c1.2,0,2.2,0,3.1-0.1c0.9,0,1.5-0.1,1.9-0.1l-0.9,6.1c-0.4,0-1,0.1-2,0.1c-0.9,0-2,0.1-3.1,0.1
			c-3.2,0-6.1-0.4-8.6-1.1c-2.5-0.7-4.6-1.8-6.4-3.2c-1.5-1.2-2.7-2.7-3.6-4.5s-1.4-3.8-1.4-5.9c0-2.1,0.3-4.1,1-5.7
			c0.7-1.7,1.7-3.3,3.2-4.8c1.2-1.3,2.8-2.3,4.6-2.9c1.8-0.7,3.7-1,5.6-1c2,0,3.8,0.3,5.3,0.8s2.9,1.4,4,2.5
			c1.3,1.3,2.3,2.9,2.9,4.8C668.6,44.4,668.9,46.7,668.9,49.2z M660.9,45.5c-0.2-1.8-0.7-3.2-1.7-4.3s-2.3-1.6-3.9-1.6
			c-1.6,0-3,0.5-4,1.6s-1.7,2.5-2,4.3H660.9z"/>
		<path class="st3" d="M701.9,63.4h-8.5c0-0.6,0-2,0-4.2c0-2.2,0-4,0-5.3c0-0.9,0-2.2,0-3.9c0-1.7,0-3,0-3.8c0-1.7-0.3-2.9-0.9-3.7
			c-0.5-0.8-1.5-1.1-2.9-1.1c-0.9,0-2,0.2-3.3,0.7c-1.2,0.5-2.4,1-3.5,1.7c0,0.1,0,1.1,0,3.1c0,2,0,3.6,0,4.9c0,2,0,4.4,0.1,7.2
			s0.1,4.3,0.1,4.6h-8.5c0-0.4,0-1.7,0-3.9c0-2.2,0-5.3,0-9.4c0-2.4,0-4.8,0-7.3c0-2.5,0-5-0.1-7.7h8.3l0,2.6l0,0.1
			c1.8-1,3.6-1.8,5.6-2.4s3.7-1,5.2-1c2.5,0,4.6,0.8,6.1,2.4c1.5,1.6,2.3,3.7,2.3,6.4c0,2.2,0,4.1,0,5.6c0,1.5,0,2.7,0,3.8
			c0,1.7,0,3.8,0.1,6.3C701.9,61.3,701.9,62.8,701.9,63.4z"/>
		<path class="st3" d="M728.9,57.5l-0.8,6.1c-0.3,0-0.7,0-1.3,0.1c-0.6,0-1.4,0-2.4,0c-4.5,0-7.9-0.9-10.1-2.6
			c-2.3-1.7-3.4-4.2-3.4-7.6c0-2.2,0-4.2,0-6c0-1.8,0-3.9,0-6.3h-4.6v-6h4.8v-7.4h8.2v7.4h9.5v6h-9.5c0,0.4,0,1.2,0,2.4
			c0,1.2,0,2.2,0,3c0,0.6,0,1.4,0,2.2c0,0.9,0,1.8,0,2.8c0,2,0.6,3.5,1.7,4.5c1.1,1,3.2,1.5,6.2,1.5c0.4,0,0.7,0,1,0
			S728.7,57.5,728.9,57.5z"/>
		<path class="st2" d="M212.3,131.4h-9.2c0-0.6,0-2.7,0.1-6.3c0-3.6,0-8.3,0-14.2c0-2.2,0-4.7,0-7.7c0-3-0.1-5.9-0.1-8.9h9.2
			c0,2.7,0,5.8-0.1,9.3c0,3.5,0,6.6,0,9.4c0,5.1,0,9.3,0,12.6C212.3,128.8,212.3,130.8,212.3,131.4z M236.8,128.7l-8.2,3.4
			c-3.8-4.7-7.4-9-10.7-12.7c-3.3-3.7-5.1-5.8-5.5-6.1v-0.1c1-1.2,3-3.8,6-7.6s6-7.8,9.1-12l8,3.4c-2.6,3.1-5.2,6.3-7.9,9.7
			c-2.7,3.4-4.3,5.4-4.8,5.9l0,0c0.2,0.2,1.7,1.9,4.3,5C229.8,120.8,233.1,124.4,236.8,128.7z"/>
		<path class="st2" d="M264.6,116.7c0,4.5,0,8,0,10.5c0,2.5,0,3.9,0,4.3c-0.3,0-1.5,0.1-3.6,0.3c-2.1,0.1-4.3,0.2-6.7,0.2
			c-1.6,0-3.3-0.1-5.3-0.4c-2-0.3-3.6-0.7-5-1.2c-1.7-0.7-3-1.7-4-2.9c-1-1.2-1.4-2.6-1.4-4.2c0-1.8,0.5-3.3,1.5-4.5
			c1-1.3,2.6-2.3,4.8-3.1c1.5-0.6,3.3-1,5.4-1.3c2.1-0.3,4.1-0.5,5.8-0.7c-0.1-1-0.3-1.8-0.8-2.4c-0.5-0.6-1.3-1.1-2.4-1.5
			c-0.7-0.2-1.6-0.4-2.5-0.5s-2-0.2-3.2-0.2c-1.1,0-2.1,0-2.9,0.1c-0.8,0-1.7,0.1-2.6,0.1l0.7-6.2c0.4,0,1,0,1.8-0.1
			c0.8,0,2,0,3.4,0c3.1,0,5.7,0.3,7.8,0.8c2.1,0.5,3.8,1.4,5.2,2.7c1.3,1.1,2.3,2.5,2.9,4.1C264.3,111.9,264.6,114.1,264.6,116.7z
			 M256.6,121.8c0-0.6,0-1.3,0-2.1c0-0.8,0-1.6,0-2.5c-0.5,0-1.5,0.1-2.9,0.3s-2.6,0.5-3.7,1c-0.7,0.3-1.4,0.8-2,1.4
			c-0.6,0.6-0.9,1.4-0.9,2.3c0,1,0.3,1.9,0.8,2.5c0.5,0.6,1.2,1.1,2.1,1.4c0.6,0.2,1.3,0.4,2.1,0.5s1.7,0.2,2.6,0.2
			c0.2,0,0.5,0,0.8,0c0.3,0,0.6,0,1,0c0-0.2,0-0.8,0-1.7C256.6,124.2,256.6,123.1,256.6,121.8z"/>
		<path class="st2" d="M291.4,125.5l-0.8,6.1c-0.3,0-0.7,0-1.3,0.1c-0.6,0-1.4,0-2.4,0c-4.5,0-7.9-0.9-10.1-2.6s-3.4-4.2-3.4-7.6
			c0-2.2,0-4.2,0-6c0-1.8,0-3.9,0-6.3h-4.6v-6h4.8v-7.4h8.2v7.4h9.5v6h-9.5c0,0.4,0,1.2,0,2.4c0,1.2,0,2.2,0,3c0,0.6,0,1.4,0,2.2
			c0,0.9,0,1.8,0,2.8c0,2,0.6,3.5,1.7,4.5c1.1,1,3.2,1.5,6.2,1.5c0.4,0,0.7,0,1,0S291.3,125.5,291.4,125.5z"/>
		<path class="st2" d="M339.4,104.7c-2.5,6.3-4.7,12-6.5,17.3c-1.9,5.3-2.9,8.4-3.3,9.4h-7.4c-0.2-0.6-0.8-2.4-1.8-5.5
			c-1-3.1-2.4-7-4-11.8h-0.1c-1.5,4.1-2.8,7.8-4,11.2c-1.2,3.4-1.9,5.4-2.2,6.1h-7.4c-0.3-1.1-1.4-4.1-3.1-9.1
			c-1.7-4.9-3.9-10.7-6.5-17.5l8.4-2.3l5.8,18.6h0.1l6-17.6h5.9l5.7,17.6h0.1l5.9-18.5L339.4,104.7z"/>
		<path class="st2" d="M352.7,98.7H344v-6.5h8.8V98.7z M352.6,131.4h-8.5c0-0.9,0-2.8,0-5.6c0-2.9,0-5.6,0-8.1c0-2.1,0-4.3,0-6.7
			c0-2.3,0-4.9-0.1-7.9h8.5c0,2.6,0,5-0.1,7.1c0,2.1,0,4.4,0,7.1c0,4.2,0,7.4,0.1,9.6C352.6,129.1,352.6,130.6,352.6,131.4z"/>
		<path class="st2" d="M369.8,129.8c0,2.3-0.4,4.4-1.2,6.2c-0.8,1.8-2.1,3.4-3.8,4.5c-1.2,0.8-2.6,1.6-4.4,2.1
			c-1.7,0.6-3.8,1-6.3,1.3l-1.8-6.2c1.4-0.2,2.8-0.4,4-0.7c1.2-0.3,2.2-0.8,2.9-1.4c0.8-0.6,1.3-1.4,1.6-2.3
			c0.3-0.9,0.5-2.3,0.5-4.3c0-4.5,0-9.9,0-16.1c0-6.2,0-9.5,0-9.9h8.5c0,0.6,0,1.9,0,3.8c0,1.9,0,4.6,0,7.9c0,2.6,0,5.2,0,7.8
			C369.8,125.3,369.8,127.7,369.8,129.8z M369.9,98.7h-8.8v-6.5h8.8V98.7z"/>
		<path class="st2" d="M386.2,131.4h-8.5c0-0.7,0-3,0-7c0-4,0-8.8,0-14.5c0-2.5,0-5.4,0-8.6c0-3.2,0-6.7-0.1-10.5h8.5
			c0,3.6-0.1,7.1-0.1,10.7c0,3.6,0,6.5,0,8.7c0,3,0,7.1,0.1,12.2C386.2,127.6,386.2,130.6,386.2,131.4z M406.5,131l-6.9,3
			c-3.6-4.7-6.5-8.4-8.9-11.2s-3.9-4.6-4.5-5.5v-0.1c0.5-0.8,2-2.7,4.5-5.8c2.5-3.1,4.7-6.1,6.7-9l7.6,2.9c-1.8,2.4-3.6,4.8-5.4,7
			c-1.8,2.3-2.9,3.7-3.3,4.3v0C400.3,122.2,403.7,127,406.5,131z"/>
	</g>
</g>
</svg>
